<svg width="40" height="40" viewBox="0 0 40 40" fill="none" xmlns="http://www.w3.org/2000/svg">
<path d="M18.6772 0.0493126C14.5929 0.69368 11.4696 3.76087 10.7661 7.80749C10.5687 8.9158 10.6459 10.5396 10.9291 11.6651C11.8729 15.2993 14.9447 18.0744 18.6171 18.6071C19.5781 18.7531 21.38 18.6672 22.2295 18.4438C25.6359 17.5589 28.1671 15.0416 29.068 11.6651C29.2654 10.9262 29.2997 10.6599 29.2997 9.37115C29.3083 8.0996 29.2825 7.80749 29.1024 7.13735C28.4932 4.80044 27.0774 2.79861 25.1554 1.52706C23.6538 0.539032 22.1265 0.0579033 20.2989 0.00635529C19.6897 -0.010828 18.9518 0.00635529 18.6772 0.0493126ZM16.3605 2.83298C16.5063 2.94467 16.5235 3.09932 16.5664 4.50833C16.5921 5.58228 16.6436 6.08918 16.7208 6.1665C16.7981 6.25242 16.8238 5.95171 16.8238 4.68875C16.8238 3.18523 16.8324 3.09932 17.0126 2.9103C17.2528 2.65255 17.5531 2.66115 17.8106 2.92748C18.0251 3.13368 18.0251 3.15946 18.0337 4.70594C18.0422 6.10636 18.0508 6.25242 18.1538 6.02044C18.2396 5.84002 18.2739 5.36749 18.2825 4.40523C18.2825 3.17664 18.2996 3.03917 18.4541 2.88453C18.6686 2.66974 18.9775 2.66115 19.2349 2.87593C19.4323 3.03058 19.4408 3.09932 19.4666 4.28495C19.5095 6.27819 19.3121 6.90537 18.4455 7.43805L18.0251 7.6958V11.6479C18.0251 15.4883 18.0165 15.6086 17.8535 15.7719C17.7591 15.8664 17.5703 15.9437 17.4244 15.9437C17.2786 15.9437 17.0898 15.8664 16.9954 15.7719C16.8324 15.6086 16.8238 15.4883 16.8238 11.7081C16.8238 8.71819 16.7981 7.78171 16.7208 7.68721C16.6608 7.61847 16.4463 7.45523 16.2489 7.32636C16.043 7.19749 15.7856 6.92256 15.6483 6.69059C15.4166 6.28678 15.408 6.25242 15.3823 4.71453L15.348 3.15086L15.5711 2.92748C15.8113 2.68692 16.1031 2.65255 16.3605 2.83298ZM24.5376 3.21101C24.6062 3.37424 24.632 5.18706 24.6148 9.48284L24.5891 15.5313L24.3831 15.6945C24.1257 15.9093 23.8512 15.9007 23.6195 15.6859C23.4307 15.5141 23.4307 15.4626 23.4307 13.1944C23.4307 11.9314 23.405 10.8231 23.3792 10.7544C23.3449 10.6771 23.1218 10.4795 22.8644 10.3076C21.8948 9.66326 21.3714 8.88143 21.2341 7.85904C21.1569 7.292 21.3457 5.71115 21.5859 4.95509C21.9377 3.84678 22.6585 3.04777 23.4221 2.92748C23.5937 2.89312 23.7911 2.86734 23.8597 2.85016C24.1172 2.8072 24.4432 2.98763 24.5376 3.21101Z" fill="white"/>
<path d="M3.52459 4.88561C3.40446 4.94576 3.24144 5.12618 3.16421 5.28942C3.02693 5.56435 3.00977 5.92519 3.00977 9.00097V12.4204H6.4505C9.76254 12.4204 9.88266 12.4118 9.83118 12.2572C9.51371 11.2348 9.35926 9.22435 9.52229 8.02153C9.65099 7.08505 9.89982 6.09702 10.2173 5.34956L10.4575 4.77392H7.10261C4.58856 4.77392 3.68762 4.7997 3.52459 4.88561Z" fill="white"/>
<path d="M29.7894 5.36674C29.9266 5.69322 30.1412 6.38055 30.2699 6.88745C30.4758 7.72083 30.5015 7.98717 30.5101 9.28449C30.5101 10.6334 30.39 11.6901 30.1583 12.2915C30.1154 12.4032 30.5187 12.4204 33.5476 12.4204H36.9883V9.00097C36.9883 5.92519 36.9712 5.56435 36.8339 5.28942C36.7566 5.12618 36.5936 4.94576 36.4735 4.88561C36.3105 4.7997 35.4095 4.77392 32.8955 4.77392H29.5405L29.7894 5.36674Z" fill="white"/>
<path d="M1.56789 17.5165C0.847139 19.6472 0.263672 21.4257 0.263672 21.4686C0.263672 21.503 1.50783 21.5202 3.02656 21.5116L5.78945 21.4858L6.57884 17.5509L7.35966 13.6246H5.12017H2.88069L1.56789 17.5165Z" fill="white"/>
<path d="M8.54307 13.8131C8.43153 14.2856 7.0415 21.3221 7.0415 21.4166C7.0415 21.5799 12.5244 21.5799 12.5759 21.4166C12.593 21.3651 12.696 20.4114 12.7904 19.3203L12.9791 17.3185L12.3613 16.6569C11.6835 15.9266 10.8512 14.7324 10.5423 14.0537L10.345 13.6241H9.46976C8.62888 13.6241 8.58598 13.6327 8.54307 13.8131Z" fill="white"/>
<path d="M29.4539 14.0537C29.145 14.7324 28.3127 15.9266 27.6349 16.6569L27.0171 17.3185L27.2059 19.3203C27.3002 20.4114 27.4032 21.3651 27.4204 21.4166C27.4719 21.5799 32.9547 21.5799 32.9547 21.4166C32.9547 21.3221 31.5647 14.2856 31.4532 13.8131C31.4103 13.6327 31.3674 13.6241 30.5265 13.6241H29.6513L29.4539 14.0537Z" fill="white"/>
<path d="M33.418 17.5509L34.2074 21.4858L36.9703 21.5116C38.489 21.5202 39.7332 21.503 39.7332 21.4686C39.7332 21.4257 39.1497 19.6472 38.429 17.5165L37.1162 13.6246H34.8767H32.6372L33.418 17.5509Z" fill="white"/>
<path d="M14.0787 18.3667C14.0787 18.4784 14.0186 19.1056 13.95 19.7672C13.8814 20.4287 13.8213 21.0989 13.8213 21.2449V21.5284H16.6099H19.3985V20.7122C19.3985 19.9132 19.3985 19.896 19.1926 19.896C18.7808 19.896 17.4422 19.6297 16.7815 19.4063C15.9063 19.1142 15.2714 18.8393 14.6707 18.4698C14.4048 18.3066 14.1645 18.1777 14.1302 18.1777C14.1044 18.1777 14.0787 18.2637 14.0787 18.3667Z" fill="white"/>
<path d="M25.2507 18.5128C24.2296 19.14 22.462 19.7156 21.1836 19.8531L20.6001 19.9132V20.7208V21.5284H23.3887H26.1774V21.2449C26.1774 21.0989 26.1173 20.4287 26.0486 19.7672C25.98 19.1056 25.9199 18.4784 25.9199 18.3667C25.9199 18.2637 25.8942 18.1777 25.8599 18.1777C25.817 18.1863 25.551 18.3324 25.2507 18.5128Z" fill="white"/>
<path d="M0.0927734 22.8171C0.0927734 23.0061 0.46173 23.6762 0.744884 24.0027C0.925072 24.2089 1.27687 24.4752 1.6115 24.6385C2.10917 24.879 2.27219 24.922 2.8385 24.922C3.40481 24.922 3.56783 24.879 4.0655 24.6385C4.40013 24.4752 4.75193 24.2089 4.93212 24.0027C5.21527 23.6762 5.58423 23.0061 5.58423 22.8171C5.58423 22.7655 4.6318 22.7312 2.8385 22.7312C1.0452 22.7312 0.0927734 22.7655 0.0927734 22.8171Z" fill="white"/>
<path d="M6.95752 22.8425C6.95752 23.0831 7.41228 23.8563 7.72976 24.1398C8.18452 24.5436 8.64786 24.7756 9.22274 24.8615C10.4926 25.0591 11.7196 24.4491 12.2345 23.3752C12.3546 23.1174 12.449 22.8683 12.449 22.8253C12.449 22.7566 11.5824 22.7308 9.70325 22.7308C7.50666 22.7308 6.95752 22.7566 6.95752 22.8425Z" fill="white"/>
<path d="M13.8213 22.8171C13.8213 23.0061 14.1902 23.6762 14.4734 24.0027C14.6536 24.2089 15.0054 24.4752 15.34 24.6385C15.8377 24.879 16.0007 24.922 16.567 24.922C17.1333 24.922 17.2963 24.879 17.794 24.6385C18.1286 24.4752 18.4804 24.2089 18.6606 24.0027C18.9438 23.6762 19.3127 23.0061 19.3127 22.8171C19.3127 22.7655 18.3603 22.7312 16.567 22.7312C14.7737 22.7312 13.8213 22.7655 13.8213 22.8171Z" fill="white"/>
<path d="M20.6855 22.8171C20.6855 23.0061 21.0545 23.6762 21.3377 24.0027C21.5178 24.2089 21.8696 24.4752 22.2043 24.6385C22.7019 24.879 22.865 24.922 23.4313 24.922C23.9976 24.922 24.1606 24.879 24.6583 24.6385C24.9929 24.4752 25.3447 24.2089 25.5249 24.0027C25.808 23.6762 26.177 23.0061 26.177 22.8171C26.177 22.7655 25.2246 22.7312 23.4313 22.7312C21.638 22.7312 20.6855 22.7655 20.6855 22.8171Z" fill="white"/>
<path d="M27.5493 22.8171C27.5493 23.0061 27.9183 23.6762 28.2014 24.0027C28.3816 24.2089 28.7334 24.4752 29.068 24.6385C29.5657 24.879 29.7287 24.922 30.295 24.922C30.8613 24.922 31.0244 24.879 31.522 24.6385C31.8567 24.4752 32.2085 24.2089 32.3887 24.0027C32.6718 23.6762 33.0408 23.0061 33.0408 22.8171C33.0408 22.7655 32.0883 22.7312 30.295 22.7312C28.5017 22.7312 27.5493 22.7655 27.5493 22.8171Z" fill="white"/>
<path d="M34.4141 22.8171C34.4141 23.0061 34.783 23.6762 35.0662 24.0027C35.2464 24.2089 35.5982 24.4752 35.9328 24.6385C36.4305 24.879 36.5935 24.922 37.1598 24.922C37.7261 24.922 37.8891 24.879 38.3868 24.6385C38.7214 24.4752 39.0732 24.2089 39.2534 24.0027C39.5366 23.6762 39.9055 23.0061 39.9055 22.8171C39.9055 22.7655 38.9531 22.7312 37.1598 22.7312C35.3665 22.7312 34.4141 22.7655 34.4141 22.8171Z" fill="white"/>
<path d="M6.02148 24.579C5.52382 25.3179 4.45127 25.9365 3.33582 26.1255L3.00977 26.177V31.6671V37.1656H4.76875H6.52773V34.1328C6.52773 31.7702 6.56205 30.9883 6.65643 30.5673C7.34287 27.6548 10.5605 26.2286 13.2376 27.6462C13.864 27.9813 14.6705 28.7889 15.0052 29.4161C15.5457 30.4385 15.5629 30.5502 15.6058 34.004L15.6401 37.1656H17.0902H18.5403V35.2411C18.5403 33.1534 18.6347 32.4059 18.995 31.4952C19.793 29.5192 21.4748 28.05 23.637 27.4142C27.7899 26.2114 32.0973 28.3163 33.2213 32.0966C33.3929 32.6723 33.4187 32.9816 33.4444 34.949L33.4873 37.1656H35.2377H36.9881V31.6671V26.177L36.6707 26.1255C35.4437 25.9193 34.4655 25.3007 33.7533 24.2869C33.7362 24.2611 33.6589 24.3385 33.5817 24.4587C33.1784 25.0516 32.4577 25.5928 31.6254 25.9107C30.9218 26.1856 29.712 26.1856 28.9912 25.9279C28.1417 25.6186 27.4296 25.0601 26.889 24.2869C26.8718 24.2611 26.7946 24.3385 26.7174 24.4587C26.3141 25.0516 25.5934 25.5928 24.7611 25.9107C24.0575 26.1856 22.8476 26.1856 22.1269 25.9279C21.2774 25.6186 20.5653 25.0601 20.0247 24.2869C20.0075 24.2611 19.9303 24.3385 19.8531 24.4587C19.4498 25.0516 18.7291 25.5928 17.8968 25.9107C17.1932 26.1856 15.9833 26.1856 15.2626 25.9279C14.4131 25.6186 13.7009 25.0601 13.1604 24.2869C13.1432 24.2611 13.066 24.3385 12.9888 24.4587C12.5855 25.0516 11.8647 25.5928 11.0324 25.9107C10.3288 26.1856 9.11901 26.1856 8.39825 25.9279C7.70324 25.6787 6.99107 25.1804 6.62211 24.6993C6.4505 24.4759 6.29606 24.2869 6.27032 24.2869C6.24457 24.2783 6.13303 24.4158 6.02148 24.579Z" fill="white"/>
<path d="M10.4917 28.3335C9.47062 28.4882 8.46671 29.27 8.00337 30.2666L7.7717 30.7649L7.74596 33.961L7.72021 37.1656H11.0751H14.4387L14.4043 34.0899C14.3614 30.6876 14.3443 30.5759 13.7866 29.7254C13.0915 28.6772 11.7873 28.1273 10.4917 28.3335Z" fill="white"/>
<path d="M24.2028 28.496C23.0873 28.7881 22.195 29.295 21.4056 30.0768C20.6934 30.7813 20.4017 31.2281 20.0928 32.0529L19.9126 32.5254H22.6583H25.4041V30.4205V28.3155L25.1295 28.3241C24.975 28.3241 24.5546 28.4014 24.2028 28.496Z" fill="white"/>
<path d="M26.606 30.4205V32.5254H29.3517H32.0888L31.9687 32.1731C31.5054 30.8672 30.4157 29.6386 29.1801 29.02C28.4507 28.6592 27.3095 28.3155 26.8462 28.3155H26.606V30.4205Z" fill="white"/>
<path d="M19.7412 35.4473V37.1656H22.5727H25.4043V35.4473V33.729H22.5727H19.7412V35.4473Z" fill="white"/>
<path d="M26.606 35.4473V37.1656H29.4375H32.269V35.4473V33.729H29.4375H26.606V35.4473Z" fill="white"/>
<path d="M0.152372 38.5224C-0.0449771 38.7372 -0.0535575 39.6736 0.143792 39.8627C0.263917 39.9829 2.18593 40.0001 19.9988 40.0001C37.8117 40.0001 39.7337 39.9829 39.8539 39.8627C40.0598 39.6651 40.0426 38.7028 39.8367 38.5138C39.6908 38.3763 38.1893 38.3677 19.9817 38.3677C1.01041 38.3677 0.281078 38.3763 0.152372 38.5224Z" fill="white"/>
</svg>
